# xmcd
#
# Track frame offsets: 
#        150
#        23632
#        38775
#        51987
#        70400
#        84570
#        109427
#        120872
#        135482
#        150622
#        160425
#        173887
#        194734
#
# Disc length: 2793 seconds
#
# Revision: 6
# Processed by: cddbd v1.5.2PL0 Copyright (c) Steve Scherf et al.
# Submitted via: ExactAudioCopy v0.99pb4
#
DISCID=b10ae70d
DTITLE=Aviv Geffen - Yareach Male - Ha'Osef (Disk 2)
DYEAR=1997
DGENRE=Rock
TTITLE0=Sof Ha'Olam
TTITLE1=Inyan
TTITLE2=Ani Parpar
TTITLE3=Mered Ha'Dma'ot
TTITLE4=Shneinu Shavim
TTITLE5=Na'arei Ha'Hof
TTITLE6=Livkot Lecha
TTITLE7=Aba Tarnegol
TTITLE8=Chaver
TTITLE9=Mashal
TTITLE10=Ha'Im Lihiyot Bach Me'Ohav
TTITLE11=Rakevet Ha'Emek
TTITLE12=Shir Tikva
EXTD=YEAR: 1997
EXTT0=
EXTT1=
EXTT2=
EXTT3=
EXTT4=
EXTT5=
EXTT6=
EXTT7=
EXTT8=
EXTT9=
EXTT10=
EXTT11=
EXTT12=
PLAYORDER=
